<svg width="347" height="160" viewBox="0 0 347 160" fill="none" xmlns="http://www.w3.org/2000/svg">
<path d="M42.625 78L28.0625 104.094V123H15.6562V104.781L0.9375 78H13.5938L23.375 100.625L33.875 78H42.625ZM92.5625 100.438C92.5625 104.062 91.9375 107.333 90.6875 110.25C89.4375 113.146 87.7083 115.604 85.5 117.625C83.2917 119.646 80.6771 121.198 77.6562 122.281C74.6354 123.365 71.3646 123.906 67.8438 123.906C64.3229 123.906 61.0521 123.365 58.0312 122.281C55.0104 121.198 52.3958 119.646 50.1875 117.625C47.9792 115.604 46.25 113.146 45 110.25C43.75 107.333 43.125 104.062 43.125 100.438C43.125 96.75 43.7396 93.4583 44.9688 90.5625C46.2188 87.6458 47.9375 85.1875 50.125 83.1875C52.3333 81.1667 54.9479 79.625 57.9688 78.5625C60.9896 77.4792 64.2812 76.9375 67.8438 76.9375C71.4062 76.9375 74.6979 77.4792 77.7188 78.5625C80.7396 79.625 83.3438 81.1667 85.5312 83.1875C87.7396 85.1875 89.4583 87.6458 90.6875 90.5625C91.9375 93.4583 92.5625 96.75 92.5625 100.438ZM79.9375 100.438C79.9375 99.0625 79.875 97.6562 79.75 96.2188C79.625 94.7812 79.3958 93.3854 79.0625 92.0312C78.7292 90.6771 78.2708 89.4062 77.6875 88.2188C77.125 87.0312 76.3958 86 75.5 85.125C74.6042 84.2292 73.5208 83.5312 72.25 83.0312C71 82.5104 69.5312 82.25 67.8438 82.25C66.1354 82.25 64.6458 82.5104 63.375 83.0312C62.1042 83.5312 61.0208 84.2188 60.125 85.0938C59.2292 85.9688 58.5 87 57.9375 88.1875C57.375 89.375 56.9271 90.6458 56.5938 92C56.2812 93.3333 56.0625 94.7292 55.9375 96.1875C55.8125 97.625 55.75 99.0417 55.75 100.438C55.75 101.812 55.8125 103.219 55.9375 104.656C56.0625 106.094 56.2917 107.49 56.625 108.844C56.9583 110.177 57.4062 111.438 57.9688 112.625C58.5521 113.812 59.2917 114.854 60.1875 115.75C61.0833 116.625 62.1562 117.323 63.4062 117.844C64.6771 118.365 66.1562 118.625 67.8438 118.625C69.4896 118.625 70.9271 118.365 72.1562 117.844C73.3854 117.302 74.4479 116.583 75.3438 115.688C76.2396 114.771 76.9792 113.719 77.5625 112.531C78.1667 111.323 78.6354 110.052 78.9688 108.719C79.3229 107.365 79.5729 105.979 79.7188 104.562C79.8646 103.146 79.9375 101.771 79.9375 100.438ZM113.469 78C112.906 79.6875 112.417 81.4375 112 83.25C111.583 85.0417 111.24 86.8438 110.969 88.6562C110.698 90.4479 110.49 92.2188 110.344 93.9688C110.219 95.7188 110.156 97.375 110.156 98.9375C110.156 100.083 110.156 101.375 110.156 102.812C110.177 104.229 110.26 105.677 110.406 107.156C110.573 108.635 110.833 110.083 111.188 111.5C111.542 112.896 112.062 114.146 112.75 115.25C113.458 116.354 114.354 117.24 115.438 117.906C116.542 118.573 117.906 118.906 119.531 118.906C120.969 118.906 122.198 118.667 123.219 118.188C124.26 117.688 125.135 117.021 125.844 116.188C126.573 115.354 127.146 114.396 127.562 113.312C128 112.229 128.333 111.094 128.562 109.906C128.812 108.719 128.969 107.521 129.031 106.312C129.115 105.083 129.156 103.917 129.156 102.812V78H141.562V100.875C141.562 104.146 141.042 107.188 140 110C138.958 112.812 137.49 115.26 135.594 117.344C133.698 119.406 131.406 121.031 128.719 122.219C126.031 123.385 123.052 123.969 119.781 123.969C117.531 123.969 115.438 123.646 113.5 123C111.562 122.375 109.781 121.51 108.156 120.406C106.552 119.281 105.115 117.958 103.844 116.438C102.594 114.896 101.542 113.219 100.688 111.406C99.8542 109.594 99.2188 107.688 98.7812 105.688C98.3438 103.667 98.1458 101.625 98.1875 99.5625V98.9375C98.2083 97.2708 98.375 95.5521 98.6875 93.7812C99 91.9896 99.4167 90.1979 99.9375 88.4062C100.479 86.6146 101.125 84.8438 101.875 83.0938C102.625 81.3229 103.458 79.625 104.375 78H113.469ZM212.969 100.438C212.969 102.625 212.677 104.708 212.094 106.688C211.51 108.646 210.688 110.458 209.625 112.125C208.583 113.792 207.333 115.302 205.875 116.656C204.417 117.99 202.802 119.125 201.031 120.062C199.281 121 197.396 121.729 195.375 122.25C193.375 122.75 191.312 123 189.188 123H169.344V78H189.188C191.312 78 193.375 78.25 195.375 78.75C197.375 79.25 199.25 79.9688 201 80.9062C202.771 81.8229 204.385 82.9479 205.844 84.2812C207.323 85.6146 208.583 87.1146 209.625 88.7812C210.688 90.4271 211.51 92.2396 212.094 94.2188C212.677 96.1771 212.969 98.25 212.969 100.438ZM200.375 100.438C200.375 98 200.073 95.6875 199.469 93.5C198.885 91.2917 197.969 89.3542 196.719 87.6875C195.469 86.0208 193.875 84.6979 191.938 83.7188C190.021 82.7396 187.719 82.25 185.031 82.25H181.75V118.625H185.031C187.677 118.625 189.958 118.135 191.875 117.156C193.812 116.156 195.406 114.823 196.656 113.156C197.927 111.469 198.865 109.531 199.469 107.344C200.073 105.156 200.375 102.854 200.375 100.438ZM252.906 123H220.594V78H252.906V83.75H233V97.6562H248.375V103.375H233V117.25H252.906V123ZM266.344 123H260.594V78H268.656L296 108.906V78H301.719V123H293.656L266.344 92.125V123ZM332.719 123H320.312V83.75H308.062V78H344.969V83.75H332.719V123Z" fill="#275372"/>
<path d="M18.8414 151.24C16.3454 151.24 14.2894 150.432 12.6734 148.816C11.0734 147.2 10.2734 145.136 10.2734 142.624C10.2734 140.96 10.6334 139.472 11.3534 138.16C12.0894 136.832 13.1134 135.8 14.4254 135.064C15.7374 134.328 17.2094 133.96 18.8414 133.96C20.7134 133.96 22.3454 134.456 23.7374 135.448C25.1454 136.424 26.1214 137.76 26.6654 139.456H25.4174C24.8894 138.096 24.0494 137.04 22.8974 136.288C21.7454 135.52 20.3934 135.136 18.8414 135.136C17.4334 135.136 16.1694 135.456 15.0494 136.096C13.9454 136.72 13.0734 137.608 12.4334 138.76C11.8094 139.896 11.4974 141.184 11.4974 142.624C11.4974 144.048 11.8094 145.328 12.4334 146.464C13.0574 147.6 13.9294 148.488 15.0494 149.128C16.1694 149.752 17.4334 150.064 18.8414 150.064C20.4414 150.064 21.8254 149.664 22.9934 148.864C24.1774 148.048 25.0254 146.912 25.5374 145.456H26.7614C26.4094 146.64 25.8574 147.672 25.1054 148.552C24.3534 149.416 23.4414 150.08 22.3694 150.544C21.2974 151.008 20.1214 151.24 18.8414 151.24ZM32.5771 149.824H40.8331V151H31.3771V134.2H40.5691V135.352H32.5771V141.712H39.9451V142.84H32.5771V149.824ZM57.3912 134.2H58.5912V151H57.5592L46.8312 136.336V151H45.6552V134.2H46.7352L57.3912 148.792V134.2ZM74.7215 134.2V135.352H69.3455V151H68.1455V135.352H62.7935V134.2H74.7215ZM89.0504 151L84.8504 143.944H80.1224V151H78.9224V134.2H85.1144C86.6184 134.2 87.8584 134.664 88.8344 135.592C89.8264 136.504 90.3224 137.672 90.3224 139.096C90.3224 140.312 89.9384 141.36 89.1704 142.24C88.4024 143.104 87.3944 143.64 86.1464 143.848L90.4184 151H89.0504ZM80.1224 135.352V142.792H85.0424C86.2424 142.792 87.2184 142.448 87.9704 141.76C88.7224 141.056 89.0984 140.168 89.0984 139.096C89.0984 138.008 88.7144 137.112 87.9464 136.408C87.1944 135.704 86.2264 135.352 85.0424 135.352H80.1224ZM109.084 148.816C107.452 150.448 105.372 151.264 102.844 151.264C100.332 151.264 98.2522 150.44 96.6042 148.792C94.9722 147.144 94.1562 145.088 94.1562 142.624C94.1562 140.128 94.9722 138.056 96.6042 136.408C98.2522 134.76 100.332 133.936 102.844 133.936C105.372 133.936 107.452 134.76 109.084 136.408C110.732 138.056 111.556 140.128 111.556 142.624C111.556 145.104 110.732 147.168 109.084 148.816ZM102.868 150.064C104.292 150.064 105.572 149.744 106.708 149.104C107.844 148.464 108.732 147.576 109.372 146.44C110.012 145.288 110.332 144.016 110.332 142.624C110.332 141.2 110.012 139.92 109.372 138.784C108.732 137.648 107.844 136.76 106.708 136.12C105.572 135.464 104.292 135.136 102.868 135.136C100.708 135.136 98.9162 135.848 97.4922 137.272C96.0842 138.696 95.3802 140.48 95.3802 142.624C95.3802 144.752 96.0842 146.528 97.4922 147.952C98.9162 149.36 100.708 150.064 102.868 150.064ZM138.039 148.816C136.407 150.448 134.327 151.264 131.799 151.264C129.287 151.264 127.207 150.44 125.559 148.792C123.927 147.144 123.111 145.088 123.111 142.624C123.111 140.128 123.927 138.056 125.559 136.408C127.207 134.76 129.287 133.936 131.799 133.936C134.327 133.936 136.407 134.76 138.039 136.408C139.687 138.056 140.511 140.128 140.511 142.624C140.511 145.104 139.687 147.168 138.039 148.816ZM131.823 150.064C133.247 150.064 134.527 149.744 135.663 149.104C136.799 148.464 137.687 147.576 138.327 146.44C138.967 145.288 139.287 144.016 139.287 142.624C139.287 141.2 138.967 139.92 138.327 138.784C137.687 137.648 136.799 136.76 135.663 136.12C134.527 135.464 133.247 135.136 131.823 135.136C129.663 135.136 127.871 135.848 126.447 137.272C125.039 138.696 124.335 140.48 124.335 142.624C124.335 144.752 125.039 146.528 126.447 147.952C127.871 149.36 129.663 150.064 131.823 150.064ZM150.64 134.2C152.256 134.2 153.712 134.56 155.008 135.28C156.32 136 157.336 137 158.056 138.28C158.792 139.56 159.16 140.992 159.16 142.576C159.16 145.024 158.352 147.04 156.736 148.624C155.136 150.208 153.104 151 150.64 151H145.48V134.2H150.64ZM150.592 149.848C151.648 149.848 152.624 149.672 153.52 149.32C154.432 148.952 155.208 148.448 155.848 147.808C156.504 147.168 157.008 146.4 157.36 145.504C157.728 144.592 157.912 143.616 157.912 142.576C157.912 140.48 157.224 138.752 155.848 137.392C154.472 136.032 152.72 135.352 150.592 135.352H146.68V149.848H150.592ZM177.821 148.816C176.189 150.448 174.109 151.264 171.581 151.264C169.069 151.264 166.989 150.44 165.341 148.792C163.709 147.144 162.893 145.088 162.893 142.624C162.893 140.128 163.709 138.056 165.341 136.408C166.989 134.76 169.069 133.936 171.581 133.936C174.109 133.936 176.189 134.76 177.821 136.408C179.469 138.056 180.293 140.128 180.293 142.624C180.293 145.104 179.469 147.168 177.821 148.816ZM171.605 150.064C173.029 150.064 174.309 149.744 175.445 149.104C176.581 148.464 177.469 147.576 178.109 146.44C178.749 145.288 179.069 144.016 179.069 142.624C179.069 141.2 178.749 139.92 178.109 138.784C177.469 137.648 176.581 136.76 175.445 136.12C174.309 135.464 173.029 135.136 171.605 135.136C169.445 135.136 167.653 135.848 166.229 137.272C164.821 138.696 164.117 140.48 164.117 142.624C164.117 144.752 164.821 146.528 166.229 147.952C167.653 149.36 169.445 150.064 171.605 150.064ZM196.999 134.2H198.199V151H197.167L186.439 136.336V151H185.263V134.2H186.343L196.999 148.792V134.2ZM214.329 134.2V135.352H208.953V151H207.753V135.352H202.401V134.2H214.329ZM231.413 148.816C229.781 150.448 227.701 151.264 225.173 151.264C222.661 151.264 220.581 150.44 218.933 148.792C217.301 147.144 216.485 145.088 216.485 142.624C216.485 140.128 217.301 138.056 218.933 136.408C220.581 134.76 222.661 133.936 225.173 133.936C227.701 133.936 229.781 134.76 231.413 136.408C233.061 138.056 233.885 140.128 233.885 142.624C233.885 145.104 233.061 147.168 231.413 148.816ZM225.197 150.064C226.621 150.064 227.901 149.744 229.037 149.104C230.173 148.464 231.061 147.576 231.701 146.44C232.341 145.288 232.661 144.016 232.661 142.624C232.661 141.2 232.341 139.92 231.701 138.784C231.061 137.648 230.173 136.76 229.037 136.12C227.901 135.464 226.621 135.136 225.197 135.136C223.037 135.136 221.245 135.848 219.821 137.272C218.413 138.696 217.709 140.48 217.709 142.624C217.709 144.752 218.413 146.528 219.821 147.952C221.245 149.36 223.037 150.064 225.197 150.064ZM238.855 151V134.2H240.055V151H238.855ZM258.338 151L256.394 146.416H247.514L245.57 151H244.274L251.33 134.2H252.434L259.658 151H258.338ZM251.906 135.904L247.97 145.288H255.914L251.906 135.904ZM272.262 134.2V135.352H266.886V151H265.686V135.352H260.334V134.2H272.262ZM286.591 151L282.391 143.944H277.663V151H276.463V134.2H282.655C284.159 134.2 285.399 134.664 286.375 135.592C287.367 136.504 287.863 137.672 287.863 139.096C287.863 140.312 287.479 141.36 286.711 142.24C285.943 143.104 284.935 143.64 283.687 143.848L287.959 151H286.591ZM277.663 135.352V142.792H282.583C283.783 142.792 284.759 142.448 285.511 141.76C286.263 141.056 286.639 140.168 286.639 139.096C286.639 138.008 286.255 137.112 285.487 136.408C284.735 135.704 283.767 135.352 282.583 135.352H277.663ZM292.92 151V134.2H294.12V151H292.92ZM307.652 151.24C305.156 151.24 303.1 150.432 301.484 148.816C299.884 147.2 299.084 145.136 299.084 142.624C299.084 140.96 299.444 139.472 300.164 138.16C300.9 136.832 301.924 135.8 303.236 135.064C304.548 134.328 306.02 133.96 307.652 133.96C309.524 133.96 311.156 134.456 312.548 135.448C313.956 136.424 314.932 137.76 315.476 139.456H314.228C313.7 138.096 312.86 137.04 311.708 136.288C310.556 135.52 309.204 135.136 307.652 135.136C306.244 135.136 304.98 135.456 303.86 136.096C302.756 136.72 301.884 137.608 301.244 138.76C300.62 139.896 300.308 141.184 300.308 142.624C300.308 144.048 300.62 145.328 301.244 146.464C301.868 147.6 302.74 148.488 303.86 149.128C304.98 149.752 306.244 150.064 307.652 150.064C309.252 150.064 310.636 149.664 311.804 148.864C312.988 148.048 313.836 146.912 314.348 145.456H315.572C315.22 146.64 314.668 147.672 313.916 148.552C313.164 149.416 312.252 150.08 311.18 150.544C310.108 151.008 308.932 151.24 307.652 151.24ZM333.892 148.816C332.26 150.448 330.18 151.264 327.652 151.264C325.14 151.264 323.06 150.44 321.412 148.792C319.78 147.144 318.964 145.088 318.964 142.624C318.964 140.128 319.78 138.056 321.412 136.408C323.06 134.76 325.14 133.936 327.652 133.936C330.18 133.936 332.26 134.76 333.892 136.408C335.54 138.056 336.364 140.128 336.364 142.624C336.364 145.104 335.54 147.168 333.892 148.816ZM327.676 150.064C329.1 150.064 330.38 149.744 331.516 149.104C332.652 148.464 333.54 147.576 334.18 146.44C334.82 145.288 335.14 144.016 335.14 142.624C335.14 141.2 334.82 139.92 334.18 138.784C333.54 137.648 332.652 136.76 331.516 136.12C330.38 135.464 329.1 135.136 327.676 135.136C325.516 135.136 323.724 135.848 322.3 137.272C320.892 138.696 320.188 140.48 320.188 142.624C320.188 144.752 320.892 146.528 322.3 147.952C323.724 149.36 325.516 150.064 327.676 150.064Z" fill="#1A374C"/>
<path d="M163.748 4.5904C166.206 5.50354 173.315 14.0017 178.181 17.6459C184.224 22.1722 186.938 21.778 188.68 22.3312C192.931 22.8995 198.923 23.6717 199.947 16.8C200.357 9.30349 198.411 5.45114 192.931 3.68114C188.547 2.26514 171.649 3.69731 163.748 4.5904ZM163.748 4.5904C161.55 3.77363 159.467 3 156.243 3C149.414 3 146 9.94118 146 18.6176C146 24.1654 147.396 27.585 148.849 31.144C149.668 33.1514 150.506 35.2029 151.122 37.7059C151.362 38.6825 151.534 39.8649 151.673 41.1765M197.781 31.144C196.962 33.1514 196.124 35.2029 195.509 37.7059C195 39.7744 194.794 42.7674 194.576 45.9503C194.061 53.4485 193.474 62 188.68 62C185.61 62 184.266 57.0916 182.785 51.6872C180.971 45.0684 178.954 37.7059 173.315 37.7059C167.676 37.7059 165.659 45.0684 163.845 51.6872C162.365 57.0916 161.02 62 157.95 62C155.126 62 153.762 59.0313 153.012 55.0588" stroke="#275372" stroke-width="6" stroke-linecap="round" stroke-linejoin="round"/>
</svg>
