<svg width="347" height="92" viewBox="0 0 347 92" fill="none" xmlns="http://www.w3.org/2000/svg">
<path d="M42.625 10L28.0625 36.0938V55H15.6562V36.7812L0.9375 10H13.5938L23.375 32.625L33.875 10H42.625ZM92.5625 32.4375C92.5625 36.0625 91.9375 39.3333 90.6875 42.25C89.4375 45.1458 87.7083 47.6042 85.5 49.625C83.2917 51.6458 80.6771 53.1979 77.6562 54.2812C74.6354 55.3646 71.3646 55.9062 67.8438 55.9062C64.3229 55.9062 61.0521 55.3646 58.0312 54.2812C55.0104 53.1979 52.3958 51.6458 50.1875 49.625C47.9792 47.6042 46.25 45.1458 45 42.25C43.75 39.3333 43.125 36.0625 43.125 32.4375C43.125 28.75 43.7396 25.4583 44.9688 22.5625C46.2188 19.6458 47.9375 17.1875 50.125 15.1875C52.3333 13.1667 54.9479 11.625 57.9688 10.5625C60.9896 9.47917 64.2812 8.9375 67.8438 8.9375C71.4062 8.9375 74.6979 9.47917 77.7188 10.5625C80.7396 11.625 83.3438 13.1667 85.5312 15.1875C87.7396 17.1875 89.4583 19.6458 90.6875 22.5625C91.9375 25.4583 92.5625 28.75 92.5625 32.4375ZM79.9375 32.4375C79.9375 31.0625 79.875 29.6562 79.75 28.2188C79.625 26.7812 79.3958 25.3854 79.0625 24.0312C78.7292 22.6771 78.2708 21.4062 77.6875 20.2188C77.125 19.0312 76.3958 18 75.5 17.125C74.6042 16.2292 73.5208 15.5312 72.25 15.0312C71 14.5104 69.5312 14.25 67.8438 14.25C66.1354 14.25 64.6458 14.5104 63.375 15.0312C62.1042 15.5312 61.0208 16.2188 60.125 17.0938C59.2292 17.9688 58.5 19 57.9375 20.1875C57.375 21.375 56.9271 22.6458 56.5938 24C56.2812 25.3333 56.0625 26.7292 55.9375 28.1875C55.8125 29.625 55.75 31.0417 55.75 32.4375C55.75 33.8125 55.8125 35.2188 55.9375 36.6562C56.0625 38.0938 56.2917 39.4896 56.625 40.8438C56.9583 42.1771 57.4062 43.4375 57.9688 44.625C58.5521 45.8125 59.2917 46.8542 60.1875 47.75C61.0833 48.625 62.1562 49.3229 63.4062 49.8438C64.6771 50.3646 66.1562 50.625 67.8438 50.625C69.4896 50.625 70.9271 50.3646 72.1562 49.8438C73.3854 49.3021 74.4479 48.5833 75.3438 47.6875C76.2396 46.7708 76.9792 45.7188 77.5625 44.5312C78.1667 43.3229 78.6354 42.0521 78.9688 40.7188C79.3229 39.3646 79.5729 37.9792 79.7188 36.5625C79.8646 35.1458 79.9375 33.7708 79.9375 32.4375ZM113.469 10C112.906 11.6875 112.417 13.4375 112 15.25C111.583 17.0417 111.24 18.8438 110.969 20.6562C110.698 22.4479 110.49 24.2188 110.344 25.9688C110.219 27.7188 110.156 29.375 110.156 30.9375C110.156 32.0833 110.156 33.375 110.156 34.8125C110.177 36.2292 110.26 37.6771 110.406 39.1562C110.573 40.6354 110.833 42.0833 111.188 43.5C111.542 44.8958 112.062 46.1458 112.75 47.25C113.458 48.3542 114.354 49.2396 115.438 49.9062C116.542 50.5729 117.906 50.9062 119.531 50.9062C120.969 50.9062 122.198 50.6667 123.219 50.1875C124.26 49.6875 125.135 49.0208 125.844 48.1875C126.573 47.3542 127.146 46.3958 127.562 45.3125C128 44.2292 128.333 43.0938 128.562 41.9062C128.812 40.7188 128.969 39.5208 129.031 38.3125C129.115 37.0833 129.156 35.9167 129.156 34.8125V10H141.562V32.875C141.562 36.1458 141.042 39.1875 140 42C138.958 44.8125 137.49 47.2604 135.594 49.3438C133.698 51.4062 131.406 53.0312 128.719 54.2188C126.031 55.3854 123.052 55.9688 119.781 55.9688C117.531 55.9688 115.438 55.6458 113.5 55C111.562 54.375 109.781 53.5104 108.156 52.4062C106.552 51.2812 105.115 49.9583 103.844 48.4375C102.594 46.8958 101.542 45.2188 100.688 43.4062C99.8542 41.5938 99.2188 39.6875 98.7812 37.6875C98.3438 35.6667 98.1458 33.625 98.1875 31.5625V30.9375C98.2083 29.2708 98.375 27.5521 98.6875 25.7812C99 23.9896 99.4167 22.1979 99.9375 20.4062C100.479 18.6146 101.125 16.8438 101.875 15.0938C102.625 13.3229 103.458 11.625 104.375 10H113.469ZM212.969 32.4375C212.969 34.625 212.677 36.7083 212.094 38.6875C211.51 40.6458 210.688 42.4583 209.625 44.125C208.583 45.7917 207.333 47.3021 205.875 48.6562C204.417 49.9896 202.802 51.125 201.031 52.0625C199.281 53 197.396 53.7292 195.375 54.25C193.375 54.75 191.312 55 189.188 55H169.344V10H189.188C191.312 10 193.375 10.25 195.375 10.75C197.375 11.25 199.25 11.9688 201 12.9062C202.771 13.8229 204.385 14.9479 205.844 16.2812C207.323 17.6146 208.583 19.1146 209.625 20.7812C210.688 22.4271 211.51 24.2396 212.094 26.2188C212.677 28.1771 212.969 30.25 212.969 32.4375ZM200.375 32.4375C200.375 30 200.073 27.6875 199.469 25.5C198.885 23.2917 197.969 21.3542 196.719 19.6875C195.469 18.0208 193.875 16.6979 191.938 15.7188C190.021 14.7396 187.719 14.25 185.031 14.25H181.75V50.625H185.031C187.677 50.625 189.958 50.1354 191.875 49.1562C193.812 48.1562 195.406 46.8229 196.656 45.1562C197.927 43.4688 198.865 41.5312 199.469 39.3438C200.073 37.1562 200.375 34.8542 200.375 32.4375ZM252.906 55H220.594V10H252.906V15.75H233V29.6562H248.375V35.375H233V49.25H252.906V55ZM266.344 55H260.594V10H268.656L296 40.9062V10H301.719V55H293.656L266.344 24.125V55ZM332.719 55H320.312V15.75H308.062V10H344.969V15.75H332.719V55Z" fill="white"/>
<path d="M18.8414 83.24C16.3454 83.24 14.2894 82.432 12.6734 80.816C11.0734 79.2 10.2734 77.136 10.2734 74.624C10.2734 72.96 10.6334 71.472 11.3534 70.16C12.0894 68.832 13.1134 67.8 14.4254 67.064C15.7374 66.328 17.2094 65.96 18.8414 65.96C20.7134 65.96 22.3454 66.456 23.7374 67.448C25.1454 68.424 26.1214 69.76 26.6654 71.456H25.4174C24.8894 70.096 24.0494 69.04 22.8974 68.288C21.7454 67.52 20.3934 67.136 18.8414 67.136C17.4334 67.136 16.1694 67.456 15.0494 68.096C13.9454 68.72 13.0734 69.608 12.4334 70.76C11.8094 71.896 11.4974 73.184 11.4974 74.624C11.4974 76.048 11.8094 77.328 12.4334 78.464C13.0574 79.6 13.9294 80.488 15.0494 81.128C16.1694 81.752 17.4334 82.064 18.8414 82.064C20.4414 82.064 21.8254 81.664 22.9934 80.864C24.1774 80.048 25.0254 78.912 25.5374 77.456H26.7614C26.4094 78.64 25.8574 79.672 25.1054 80.552C24.3534 81.416 23.4414 82.08 22.3694 82.544C21.2974 83.008 20.1214 83.24 18.8414 83.24ZM32.5771 81.824H40.8331V83H31.3771V66.2H40.5691V67.352H32.5771V73.712H39.9451V74.84H32.5771V81.824ZM57.3912 66.2H58.5912V83H57.5592L46.8312 68.336V83H45.6552V66.2H46.7352L57.3912 80.792V66.2ZM74.7215 66.2V67.352H69.3455V83H68.1455V67.352H62.7935V66.2H74.7215ZM89.0504 83L84.8504 75.944H80.1224V83H78.9224V66.2H85.1144C86.6184 66.2 87.8584 66.664 88.8344 67.592C89.8264 68.504 90.3224 69.672 90.3224 71.096C90.3224 72.312 89.9384 73.36 89.1704 74.24C88.4024 75.104 87.3944 75.64 86.1464 75.848L90.4184 83H89.0504ZM80.1224 67.352V74.792H85.0424C86.2424 74.792 87.2184 74.448 87.9704 73.76C88.7224 73.056 89.0984 72.168 89.0984 71.096C89.0984 70.008 88.7144 69.112 87.9464 68.408C87.1944 67.704 86.2264 67.352 85.0424 67.352H80.1224ZM109.084 80.816C107.452 82.448 105.372 83.264 102.844 83.264C100.332 83.264 98.2522 82.44 96.6042 80.792C94.9722 79.144 94.1562 77.088 94.1562 74.624C94.1562 72.128 94.9722 70.056 96.6042 68.408C98.2522 66.76 100.332 65.936 102.844 65.936C105.372 65.936 107.452 66.76 109.084 68.408C110.732 70.056 111.556 72.128 111.556 74.624C111.556 77.104 110.732 79.168 109.084 80.816ZM102.868 82.064C104.292 82.064 105.572 81.744 106.708 81.104C107.844 80.464 108.732 79.576 109.372 78.44C110.012 77.288 110.332 76.016 110.332 74.624C110.332 73.2 110.012 71.92 109.372 70.784C108.732 69.648 107.844 68.76 106.708 68.12C105.572 67.464 104.292 67.136 102.868 67.136C100.708 67.136 98.9162 67.848 97.4922 69.272C96.0842 70.696 95.3802 72.48 95.3802 74.624C95.3802 76.752 96.0842 78.528 97.4922 79.952C98.9162 81.36 100.708 82.064 102.868 82.064ZM138.039 80.816C136.407 82.448 134.327 83.264 131.799 83.264C129.287 83.264 127.207 82.44 125.559 80.792C123.927 79.144 123.111 77.088 123.111 74.624C123.111 72.128 123.927 70.056 125.559 68.408C127.207 66.76 129.287 65.936 131.799 65.936C134.327 65.936 136.407 66.76 138.039 68.408C139.687 70.056 140.511 72.128 140.511 74.624C140.511 77.104 139.687 79.168 138.039 80.816ZM131.823 82.064C133.247 82.064 134.527 81.744 135.663 81.104C136.799 80.464 137.687 79.576 138.327 78.44C138.967 77.288 139.287 76.016 139.287 74.624C139.287 73.2 138.967 71.92 138.327 70.784C137.687 69.648 136.799 68.76 135.663 68.12C134.527 67.464 133.247 67.136 131.823 67.136C129.663 67.136 127.871 67.848 126.447 69.272C125.039 70.696 124.335 72.48 124.335 74.624C124.335 76.752 125.039 78.528 126.447 79.952C127.871 81.36 129.663 82.064 131.823 82.064ZM150.64 66.2C152.256 66.2 153.712 66.56 155.008 67.28C156.32 68 157.336 69 158.056 70.28C158.792 71.56 159.16 72.992 159.16 74.576C159.16 77.024 158.352 79.04 156.736 80.624C155.136 82.208 153.104 83 150.64 83H145.48V66.2H150.64ZM150.592 81.848C151.648 81.848 152.624 81.672 153.52 81.32C154.432 80.952 155.208 80.448 155.848 79.808C156.504 79.168 157.008 78.4 157.36 77.504C157.728 76.592 157.912 75.616 157.912 74.576C157.912 72.48 157.224 70.752 155.848 69.392C154.472 68.032 152.72 67.352 150.592 67.352H146.68V81.848H150.592ZM177.821 80.816C176.189 82.448 174.109 83.264 171.581 83.264C169.069 83.264 166.989 82.44 165.341 80.792C163.709 79.144 162.893 77.088 162.893 74.624C162.893 72.128 163.709 70.056 165.341 68.408C166.989 66.76 169.069 65.936 171.581 65.936C174.109 65.936 176.189 66.76 177.821 68.408C179.469 70.056 180.293 72.128 180.293 74.624C180.293 77.104 179.469 79.168 177.821 80.816ZM171.605 82.064C173.029 82.064 174.309 81.744 175.445 81.104C176.581 80.464 177.469 79.576 178.109 78.44C178.749 77.288 179.069 76.016 179.069 74.624C179.069 73.2 178.749 71.92 178.109 70.784C177.469 69.648 176.581 68.76 175.445 68.12C174.309 67.464 173.029 67.136 171.605 67.136C169.445 67.136 167.653 67.848 166.229 69.272C164.821 70.696 164.117 72.48 164.117 74.624C164.117 76.752 164.821 78.528 166.229 79.952C167.653 81.36 169.445 82.064 171.605 82.064ZM196.999 66.2H198.199V83H197.167L186.439 68.336V83H185.263V66.2H186.343L196.999 80.792V66.2ZM214.329 66.2V67.352H208.953V83H207.753V67.352H202.401V66.2H214.329ZM231.413 80.816C229.781 82.448 227.701 83.264 225.173 83.264C222.661 83.264 220.581 82.44 218.933 80.792C217.301 79.144 216.485 77.088 216.485 74.624C216.485 72.128 217.301 70.056 218.933 68.408C220.581 66.76 222.661 65.936 225.173 65.936C227.701 65.936 229.781 66.76 231.413 68.408C233.061 70.056 233.885 72.128 233.885 74.624C233.885 77.104 233.061 79.168 231.413 80.816ZM225.197 82.064C226.621 82.064 227.901 81.744 229.037 81.104C230.173 80.464 231.061 79.576 231.701 78.44C232.341 77.288 232.661 76.016 232.661 74.624C232.661 73.2 232.341 71.92 231.701 70.784C231.061 69.648 230.173 68.76 229.037 68.12C227.901 67.464 226.621 67.136 225.197 67.136C223.037 67.136 221.245 67.848 219.821 69.272C218.413 70.696 217.709 72.48 217.709 74.624C217.709 76.752 218.413 78.528 219.821 79.952C221.245 81.36 223.037 82.064 225.197 82.064ZM238.855 83V66.2H240.055V83H238.855ZM258.338 83L256.394 78.416H247.514L245.57 83H244.274L251.33 66.2H252.434L259.658 83H258.338ZM251.906 67.904L247.97 77.288H255.914L251.906 67.904ZM272.262 66.2V67.352H266.886V83H265.686V67.352H260.334V66.2H272.262ZM286.591 83L282.391 75.944H277.663V83H276.463V66.2H282.655C284.159 66.2 285.399 66.664 286.375 67.592C287.367 68.504 287.863 69.672 287.863 71.096C287.863 72.312 287.479 73.36 286.711 74.24C285.943 75.104 284.935 75.64 283.687 75.848L287.959 83H286.591ZM277.663 67.352V74.792H282.583C283.783 74.792 284.759 74.448 285.511 73.76C286.263 73.056 286.639 72.168 286.639 71.096C286.639 70.008 286.255 69.112 285.487 68.408C284.735 67.704 283.767 67.352 282.583 67.352H277.663ZM292.92 83V66.2H294.12V83H292.92ZM307.652 83.24C305.156 83.24 303.1 82.432 301.484 80.816C299.884 79.2 299.084 77.136 299.084 74.624C299.084 72.96 299.444 71.472 300.164 70.16C300.9 68.832 301.924 67.8 303.236 67.064C304.548 66.328 306.02 65.96 307.652 65.96C309.524 65.96 311.156 66.456 312.548 67.448C313.956 68.424 314.932 69.76 315.476 71.456H314.228C313.7 70.096 312.86 69.04 311.708 68.288C310.556 67.52 309.204 67.136 307.652 67.136C306.244 67.136 304.98 67.456 303.86 68.096C302.756 68.72 301.884 69.608 301.244 70.76C300.62 71.896 300.308 73.184 300.308 74.624C300.308 76.048 300.62 77.328 301.244 78.464C301.868 79.6 302.74 80.488 303.86 81.128C304.98 81.752 306.244 82.064 307.652 82.064C309.252 82.064 310.636 81.664 311.804 80.864C312.988 80.048 313.836 78.912 314.348 77.456H315.572C315.22 78.64 314.668 79.672 313.916 80.552C313.164 81.416 312.252 82.08 311.18 82.544C310.108 83.008 308.932 83.24 307.652 83.24ZM333.892 80.816C332.26 82.448 330.18 83.264 327.652 83.264C325.14 83.264 323.06 82.44 321.412 80.792C319.78 79.144 318.964 77.088 318.964 74.624C318.964 72.128 319.78 70.056 321.412 68.408C323.06 66.76 325.14 65.936 327.652 65.936C330.18 65.936 332.26 66.76 333.892 68.408C335.54 70.056 336.364 72.128 336.364 74.624C336.364 77.104 335.54 79.168 333.892 80.816ZM327.676 82.064C329.1 82.064 330.38 81.744 331.516 81.104C332.652 80.464 333.54 79.576 334.18 78.44C334.82 77.288 335.14 76.016 335.14 74.624C335.14 73.2 334.82 71.92 334.18 70.784C333.54 69.648 332.652 68.76 331.516 68.12C330.38 67.464 329.1 67.136 327.676 67.136C325.516 67.136 323.724 67.848 322.3 69.272C320.892 70.696 320.188 72.48 320.188 74.624C320.188 76.752 320.892 78.528 322.3 79.952C323.724 81.36 325.516 82.064 327.676 82.064Z" fill="#D9E8F2"/>
</svg>
