<svg width="60" height="65" viewBox="0 0 60 65" fill="none" xmlns="http://www.w3.org/2000/svg">
<g clip-path="url(#clip0_37_1356)">
<path d="M20.7482 4.5904C23.2062 5.50354 30.3151 14.0017 35.1806 17.6459C41.224 22.1722 43.9385 21.778 45.6798 22.3312C49.9307 22.8995 55.923 23.6717 56.9473 16.8C57.357 9.30349 55.4108 5.45114 49.9307 3.68114C45.5467 2.26514 28.649 3.69731 20.7482 4.5904ZM20.7482 4.5904C18.5497 3.77363 16.4673 3 13.2432 3C6.41438 3 3 9.94118 3 18.6176C3 24.1654 4.39597 27.585 5.849 31.144C6.66842 33.1514 7.506 35.2029 8.12158 37.7059C8.36174 38.6825 8.53438 39.8649 8.67266 41.1765M54.7812 31.144C53.9617 33.1514 53.1242 35.2029 52.5086 37.7059C51.9998 39.7744 51.7943 42.7674 51.5758 45.9503C51.0609 53.4485 50.4736 62 45.6798 62C42.6103 62 41.2657 57.0916 39.7849 51.6872C37.9715 45.0684 35.9543 37.7059 30.3151 37.7059C24.6762 37.7059 22.6589 45.0684 20.8455 51.6872C19.3647 57.0916 18.0199 62 14.9504 62C12.126 62 10.7619 59.0313 10.0124 55.0588" stroke="#275372" stroke-width="6" stroke-linecap="round" stroke-linejoin="round"/>
</g>
<defs>
<clipPath id="clip0_37_1356">
<rect width="60" height="65" fill="white"/>
</clipPath>
</defs>
</svg>
