<!DOCTYPE svg PUBLIC "-//W3C//DTD SVG 1.1//EN" "http://www.w3.org/Graphics/SVG/1.1/DTD/svg11.dtd">
<!-- Uploaded to: SVG Repo, www.svgrepo.com, Transformed by: SVG Repo Mixer Tools -->
<svg width="800px" height="800px" viewBox="0 0 64 64" xmlns="http://www.w3.org/2000/svg" fill="#000000">
<g id="SVGRepo_bgCarrier" stroke-width="0"/>
<g id="SVGRepo_tracerCarrier" stroke-linecap="round" stroke-linejoin="round"/>
<g id="SVGRepo_iconCarrier"> <g fill="none" fill-rule="evenodd"> <path fill="#ffffff" d="M51.8137386,32 C52.5838535,26.7174939 53,21.8964501 53,19 C53,9.61115925 48.627417,2 42,2 C38.8333333,2 35.6666667,5 32.5,5 C29.3333333,5 26.1666667,2 23,2 C16.372583,2 12,9.61115925 12,19 C12,21.8964501 12.4161465,26.7174939 13.1862614,32 L51.8137386,32 L51.8137386,32 Z"/> <polygon fill="#ffffff" points="24 32 41 32 41 39 38 43 38 58 32.5 62 27 58 27 43 24 39"/> <path stroke="#FFF" stroke-linecap="round" stroke-width="2" d="M25,6 C20.581722,6 17,9.581722 17,14"/> <polygon fill="#D8D8D8" points="27 51 38 54 38 56 27 53"/> <polygon fill="#D8D8D8" points="27 47 38 50 38 52 27 49"/> <polygon fill="#D8D8D8" points="27 43 38 46 38 48 27 45"/> </g> </g>
</svg>